<svg version="1.2" xmlns="http://www.w3.org/2000/svg" viewBox="0 0 1920 1080" width="1920" height="1080">
	<title>arabacılarpansiyon</title>
	<defs>
		<linearGradient id="g1" x2="1" gradientUnits="userSpaceOnUse" gradientTransform="matrix(69.494,0,0,53.921,1217.971,736.27)">
			<stop offset=".12" stop-color="#383e42"/>
			<stop offset=".122" stop-color="#383e42"/>
			<stop offset="1" stop-color="#383e42"/>
		</linearGradient>
		<linearGradient id="g2" x2="1" gradientUnits="userSpaceOnUse" gradientTransform="matrix(63.948,0,0,42.852,1291.97,747.339)">
			<stop offset="0" stop-color="#383e42"/>
			<stop offset="1" stop-color="#383e42"/>
		</linearGradient>
		<linearGradient id="g3" x2="1" gradientUnits="userSpaceOnUse" gradientTransform="matrix(60.829,0,0,42.852,1365.449,747.339)">
			<stop offset="0" stop-color="#383e42"/>
			<stop offset="1" stop-color="#383e42"/>
		</linearGradient>
		<linearGradient id="g4" x2="1" gradientUnits="userSpaceOnUse" gradientTransform="matrix(56.237,0,0,42.852,1435.202,747.339)">
			<stop offset="0" stop-color="#383e42"/>
			<stop offset="1" stop-color="#383e42"/>
		</linearGradient>
		<linearGradient id="g5" x2="1" gradientUnits="userSpaceOnUse" gradientTransform="matrix(13.172,0,0,57.084,1500.103,733.108)">
			<stop offset="0" stop-color="#383e42"/>
			<stop offset="1" stop-color="#383e42"/>
		</linearGradient>
		<linearGradient id="g6" x2="1" gradientUnits="userSpaceOnUse" gradientTransform="matrix(61.522,0,0,55.661,1523.412,747.339)">
			<stop offset="0" stop-color="#383e42"/>
			<stop offset="1" stop-color="#383e42"/>
		</linearGradient>
		<linearGradient id="g7" x2="1" gradientUnits="userSpaceOnUse" gradientTransform="matrix(60.829,0,0,42.852,1594.811,747.339)">
			<stop offset="0" stop-color="#383e42"/>
			<stop offset="1" stop-color="#383e42"/>
		</linearGradient>
		<linearGradient id="g8" x2="1" gradientUnits="userSpaceOnUse" gradientTransform="matrix(60.829,0,0,42.852,1665.171,747.339)">
			<stop offset="0" stop-color="#383e42"/>
			<stop offset="1" stop-color="#383e42"/>
		</linearGradient>
		<linearGradient id="g9" x2="1" gradientUnits="userSpaceOnUse" gradientTransform="matrix(370.396,0,0,336.314,876.259,276.823)">
			<stop offset="0" stop-color="#383e42"/>
			<stop offset="1" stop-color="#383e42"/>
		</linearGradient>
		<linearGradient id="g10" x2="1" gradientUnits="userSpaceOnUse" gradientTransform="matrix(332.483,0,0,336.314,792.604,276.823)">
			<stop offset="0" stop-color="#383e42"/>
			<stop offset="1" stop-color="#383e42"/>
		</linearGradient>
		<linearGradient id="g11" x2="1" gradientUnits="userSpaceOnUse" gradientTransform="matrix(91.585,0,0,80.383,1123.305,532.754)">
			<stop offset=".122" stop-color="#383e42"/>
			<stop offset=".14" stop-color="#383e42"/>
			<stop offset="1" stop-color="#383e42"/>
		</linearGradient>
		<linearGradient id="g12" x2="1" gradientUnits="userSpaceOnUse" gradientTransform="matrix(0,-172.66,26.3,0,-199.954,854.798)">
			<stop offset="0" stop-color="#383e42"/>
			<stop offset="1" stop-color="#383e42"/>
		</linearGradient>
		<linearGradient id="g13" x2="1" gradientUnits="userSpaceOnUse" gradientTransform="matrix(0,-172.659,18.654,0,-313.859,854.798)">
			<stop offset="0" stop-color="#383e42"/>
			<stop offset="1" stop-color="#383e42"/>
		</linearGradient>
		<linearGradient id="g14" x2="1" gradientUnits="userSpaceOnUse" gradientTransform="matrix(0,-172.659,18.654,0,-381.657,854.798)">
			<stop offset="0" stop-color="#383e42"/>
			<stop offset="1" stop-color="#383e42"/>
		</linearGradient>
		<linearGradient id="g15" x2="1" gradientUnits="userSpaceOnUse" gradientTransform="matrix(0,-172.658,26.3,0,-83.635,854.798)">
			<stop offset="0" stop-color="#383e42"/>
			<stop offset="1" stop-color="#383e42"/>
		</linearGradient>
		<linearGradient id="g16" x2="1" gradientUnits="userSpaceOnUse" gradientTransform="matrix(0,-172.659,45.18,0,-16.152,854.798)">
			<stop offset="0" stop-color="#383e42"/>
			<stop offset="1" stop-color="#383e42"/>
		</linearGradient>
		<linearGradient id="g17" x2="1" gradientUnits="userSpaceOnUse" gradientTransform="matrix(864.76,0,0,9.778,338.05,738.626)">
			<stop offset="0" stop-color="#383e42"/>
			<stop offset="1" stop-color="#383e42"/>
		</linearGradient>
	</defs>
	<style>
		.s0 { fill: #383e42 } 
		.s1 { fill: url(#g1) } 
		.s2 { fill: url(#g2) } 
		.s3 { fill: url(#g3) } 
		.s4 { fill: url(#g4) } 
		.s5 { fill: url(#g5) } 
		.s6 { fill: url(#g6) } 
		.s7 { fill: url(#g7) } 
		.s8 { fill: url(#g8) } 
		.s9 { fill: url(#g9) } 
		.s10 { fill: url(#g10) } 
		.s11 { fill: url(#g11) } 
		.s12 { fill: url(#g12) } 
		.s13 { fill: url(#g13) } 
		.s14 { fill: url(#g14) } 
		.s15 { fill: url(#g15) } 
		.s16 { fill: url(#g16) } 
		.s17 { fill: url(#g17) } 
	</style>
	<g id="katman 1">
		<g id="&lt;Group&gt;">
			<path id="&lt;Compound Path&gt;" class="s0" d="m387.6 717.1l18.4-24.9h24.7c5.9 0 12.8 0 17.5 0.3-2.7-3.5-6.8-9.4-10-14l-17.7-25.6-46.1 64.2h-36l63-87.4c4.1-5.7 10.2-10.9 19.7-10.9 9.1 0 15.2 4.8 19.4 10.9l61.5 87.4z"/>
			<path id="&lt;Compound Path&gt;" class="s0" d="m652.3 717.1h-40.7l-21.9-25.6h-46.7v25.6h-30.5v-49.4h85.6c9.4 0 16.7-4.2 16.7-10.9 0-7.5-6.3-11.2-16.7-11.2h-85.6l19.9-25.2h63.2c22.3 0 50.5 7 50.5 34.6 0 15-9.5 27.4-25.7 30.6 3.4 2.4 7.1 5.9 13.8 12.7z"/>
			<path id="&lt;Compound Path&gt;" class="s0" d="m704.8 717.1l18.4-24.9h24.7c5.8 0 12.7 0 17.4 0.3-2.6-3.5-6.7-9.4-9.9-14l-17.7-25.6-46.1 64.2h-36.1l63.1-87.4c4.1-5.7 10.1-10.9 19.7-10.9 9.1 0 15.1 4.8 19.4 10.9l61.4 87.4z"/>
			<path id="&lt;Compound Path&gt;" fill-rule="evenodd" class="s0" d="m956.4 688.9c0 16-8.9 28.2-40 28.2h-86.4v-58.8h87c4.4 0 8.6-1.6 8.6-6.5 0-4.8-4.3-6.2-8.6-6.2h-87l20.6-25.2h65.1c23.5 0 38.7 9 38.7 26.8 0 11.4-6.7 17.7-13.4 20.2 8.5 2.4 15.4 9.9 15.4 21.5zm-95.8-10v13.3h56c6.6 0 9.4-2.3 9.4-6.8 0-4.2-2.8-6.5-9.4-6.5z"/>
			<path id="&lt;Compound Path&gt;" class="s0" d="m1004.5 717.1l18.3-24.9h24.7c5.9 0 12.8 0 17.5 0.3-2.6-3.5-6.7-9.4-10-14l-17.6-25.6-46.2 64.2h-36l63.1-87.4c4.1-5.7 10.1-10.9 19.7-10.9 9.1 0 15.1 4.8 19.4 10.9l61.4 87.4z"/>
			<path id="&lt;Compound Path&gt;" class="s0" d="m1239.6 692.2l-19.5 24.9h-49.4c-34.1 0-59.2-21.3-59.2-49.3 0-28.3 25.1-47.4 59.2-47.4h68.9l-19.5 25.2h-49.4c-16.5 0-28.8 9.6-28.8 23.5 0 13.7 12.2 23.1 28.8 23.1z"/>
			<path id="&lt;Compound Path&gt;" class="s0" d="m1281.1 717.1h-30.4v-96.7h30.4z"/>
			<path id="&lt;Compound Path&gt;" class="s0" d="m1406.6 692.2l-19.7 24.9h-86.9v-96.7h30.5v71.8z"/>
			<path id="&lt;Compound Path&gt;" class="s0" d="m1453.5 717.1l18.4-24.9h24.7c5.8 0 12.7 0 17.5 0.3-2.7-3.5-6.8-9.4-10-14l-17.7-25.6-46.1 64.2h-36l63-87.4c4.1-5.7 10.2-10.9 19.7-10.9 9.1 0 15.1 4.8 19.4 10.9l61.4 87.4z"/>
			<path id="&lt;Compound Path&gt;" class="s0" d="m1718.2 717.1h-40.7l-21.9-25.6h-46.7v25.6h-30.5v-49.4h85.6c9.4 0 16.7-4.2 16.7-10.9 0-7.5-6.3-11.2-16.7-11.2h-85.6l19.9-25.2h63.2c22.3 0 50.5 7 50.5 34.6 0 15-9.5 27.4-25.7 30.6 3.4 2.4 7.1 5.9 13.8 12.7z"/>
		</g>
		<g id="&lt;Group&gt;">
			<g id="&lt;Group&gt;">
				<path id="&lt;Compound Path&gt;" fill-rule="evenodd" class="s1" d="m1231.1 774.8v15.4h-13.1v-53.9h47.3c16.9 0 22.2 4.6 22.2 17.4v4.6c0 12.9-5 16.5-22.2 16.5zm43.1-20.7c0-5.8-2.2-7.5-9.3-7.5h-33.8v18.4h33.9c7 0 9.2-1.5 9.2-7.1z"/>
				<path id="&lt;Compound Path&gt;" fill-rule="evenodd" class="s2" d="m1309.1 790.2c-13.5 0-17.1-4.4-17.1-11.3v-4c0-7.2 3.3-11.4 16.3-11.4h34.7v-0.9c0-5.5-2.2-6.9-8-6.9h-12.8v-8.4h12.8c15 0 20.9 4.9 20.9 15.9v10.4c0 12.4-4.7 16.6-21.4 16.6zm33.9-19.4h-33.4c-3 0-4.8 1-4.8 4.4v2.9c0 3 2 4 5.3 4h24.2c6.1 0 8.7-1.2 8.7-7.6z"/>
				<path id="&lt;Compound Path&gt;" class="s3" d="m1413.4 790.2v-23.9c0-7.1-2.2-8.8-10.5-8.8h-14.1c-8.1 0-10.4 1.7-10.4 8.8v23.9h-13v-24.3c0-13.7 5.2-18.6 22.6-18.6h15.7c17.5 0 22.6 4.9 22.6 18.6v24.3z"/>
				<path id="&lt;Compound Path&gt;" class="s4" d="m1491.4 778.8c0 8.5-2.6 11.4-15.8 11.4h-40.4v-9.3h38.7c3.5 0 4.7-0.8 4.7-3.8v-1.4c0-3.1-1.2-3.5-4.3-3.5h-26.4c-10.6 0-12.6-3.8-12.6-11.3v-3.3c0-7.4 3-10.3 13.1-10.3h17.8v9h-14.7c-2.5 0-3.6 0.7-3.6 2.9v2c0 2.3 1.1 3.1 3.3 3.1h25.5c12.1 0 14.7 3.3 14.7 12.3z"/>
				<path id="&lt;Compound Path&gt;" class="s5" d="m1504.5 744.9c-3.2 0-4.4-1.1-4.4-3.6v-4.6c0-2.6 1.2-3.6 4.4-3.6h4.3c3.3 0 4.5 1 4.5 3.6v4.6c0 2.5-1.2 3.6-4.5 3.6zm-4.5 45.3v-41.8h13.2v41.8z"/>
				<path id="&lt;Compound Path&gt;" class="s6" d="m1536.1 769.6c0 4.8 2.1 6.4 7.4 6.4h28.9v-28.7h12.5v42.1c0 9.6-4.9 13.6-16.6 13.6h-18.8v-9.6h17.7c3.5 0 5.2-1.1 5.2-4.6v-3.5h-29.7c-14 0-19.3-4.8-19.3-15.2v-22.8h12.7z"/>
				<path id="&lt;Compound Path&gt;" fill-rule="evenodd" class="s7" d="m1617.3 790.2c-17.4 0-22.5-4.9-22.5-18.5v-5.8c0-13.7 5.1-18.6 22.5-18.6h15.7c17.5 0 22.6 4.9 22.6 18.7v5.7c0 13.6-5.1 18.5-22.6 18.5zm25.4-23.9c0-7.3-2.1-8.8-11.4-8.8h-12.2c-9.2 0-11.4 1.5-11.4 8.8v5.1c0 7.1 2.2 8.8 11.4 8.8h12.2c9.3 0 11.4-1.7 11.4-8.8z"/>
				<path id="&lt;Compound Path&gt;" class="s8" d="m1713.1 790.2v-23.9c0-7.1-2.2-8.8-10.5-8.8h-14c-8.2 0-10.5 1.7-10.5 8.8v23.9h-12.9v-24.3c0-13.7 5.1-18.6 22.5-18.6h15.7c17.5 0 22.6 4.9 22.6 18.6v24.3z"/>
			</g>
		</g>
		<g id="&lt;Group&gt;">
			<g id="&lt;Group&gt;">
				<g id="&lt;Group&gt;">
					<g id="&lt;Group&gt;">
						<path id="&lt;Path&gt;" class="s9" d="m1246.7 397.6c0 46.7-27.3 87.4-66.9 107.4-6.6 3.4-13.6 6.1-20.8 8.3-7.4 2.1-15.1 3.6-22.9 4.4-4 0.4-8.1 0.6-12.3 0.6h-143.6l-53.1 94.8h-50.8l131.2-234.4 25.4 45.4-28.2 50.4h119.1c4.4 0 8.8-0.3 13-1 7.5-1.3 14.8-3.6 21.5-6.9 26-12.5 43.8-38.7 43.8-69 0-42.5-35.1-77-78.3-77h-33l-7.1 12.7-25.4-45.3 6.3-11.2h59.2c67.7 0 122.9 54.2 122.9 120.8z"/>
					</g>
				</g>
				<g id="&lt;Group&gt;">
					<path id="&lt;Path&gt;" class="s10" d="m1074.2 452.7l-68.2-126.6-162.6 287h-50.8l188.2-336.3h45.9l98.4 175.8c-0.5 0.1-50.9 0.1-50.9 0.1z"/>
					<path id="&lt;Path&gt;" class="s11" d="m1214.9 613.1h-50.8l-40.8-72.9h0.5c5.1 0 10-0.2 14.5-0.7 9.1-1 18.2-2.7 27.1-5.3q2.3-0.6 4.5-1.4z"/>
				</g>
			</g>
		</g>
		<g id="&lt;Group&gt;">
			<g id="&lt;Group&gt;">
				<path id="&lt;Path&gt;" class="s12" d="m212.3 631.3l-18.7 10.7v112.1q9.2-1.6 18.7-2.8z"/>
				<path id="&lt;Path&gt;" class="s13" d="m287.9 749.2q7.2 0.5 14.3 1.2v-123.5l-14.3-8z"/>
				<path id="&lt;Path&gt;" class="s14" d="m220.1 750.4q7.1-0.7 14.3-1.2v-130.3l-14.3 8z"/>
				<path id="&lt;Path&gt;" class="s15" d="m310 631.3v120q9.5 1.2 18.7 2.8v-112.1z"/>
				<path id="&lt;Path&gt;" class="s16" d="m261.2 603.7l-19 10.7v134.4q4.9-0.2 9.8-0.4v-31.1l9.2-5.2 9.1 5.2v31.1q4.9 0.2 9.8 0.4v-134.4z"/>
			</g>
		</g>
		<path id="&lt;Path&gt;" class="s17" d="m1202.8 748.4h-864.8v-9.8h864.8z"/>
	</g>
</svg>